<svg id="visual" viewBox="0 0 540 960" width="540" height="960" xmlns="http://www.w3.org/2000/svg" xmlns:xlink="http://www.w3.org/1999/xlink" version="1.1"><rect x="0" y="0" width="540" height="960" fill="#22272c"></rect><path d="M342 960L357.7 937.2C373.3 914.3 404.7 868.7 397 823C389.3 777.3 342.7 731.7 318 686C293.3 640.3 290.7 594.7 312.3 548.8C334 503 380 457 380.2 411.2C380.3 365.3 334.7 319.7 310.5 274C286.3 228.3 283.7 182.7 300.3 137C317 91.3 353 45.7 371 22.8L389 0L540 0L540 22.8C540 45.7 540 91.3 540 137C540 182.7 540 228.3 540 274C540 319.7 540 365.3 540 411.2C540 457 540 503 540 548.8C540 594.7 540 640.3 540 686C540 731.7 540 777.3 540 823C540 868.7 540 914.3 540 937.2L540 960Z" fill="#2e31cf" stroke-linecap="round" stroke-linejoin="miter"></path></svg>
